
<region>
sample=..\Samples\babyblue\fake_ntp\babyblue_fake_ntp_gb1_f_rr1.wav
lokey=28
hikey=28
seq_length=8
pitch_keycenter=30

<region>
sample=..\Samples\babyblue\fake_ntp\babyblue_fake_ntp_gb1_f_rr2.wav
lokey=28
hikey=28
seq_length=8
seq_position=2
pitch_keycenter=30

<region>
sample=..\Samples\babyblue\fake_ntp\babyblue_fake_ntp_gb1_f_rr3.wav
lokey=28
hikey=28
seq_length=8
seq_position=3
pitch_keycenter=30

<region>
sample=..\Samples\babyblue\fake_ntp\babyblue_fake_ntp_gb1_f_rr4.wav
lokey=28
hikey=28
seq_length=8
seq_position=4
pitch_keycenter=30

<region>
sample=..\Samples\babyblue\fake_ntp\babyblue_fake_ntp_gb1_f_rr1.wav
lokey=28
hikey=28
seq_length=8
seq_position=5
pitch_keycenter=30

<region>
sample=..\Samples\babyblue\fake_ntp\babyblue_fake_ntp_gb1_f_rr2.wav
lokey=28
hikey=28
seq_length=8
seq_position=6
pitch_keycenter=30

<region>
sample=..\Samples\babyblue\fake_ntp\babyblue_fake_ntp_gb1_f_rr3.wav
lokey=28
hikey=28
seq_length=8
seq_position=7
pitch_keycenter=30

<region>
sample=..\Samples\babyblue\fake_ntp\babyblue_fake_ntp_gb1_f_rr4.wav
lokey=28
hikey=28
seq_length=8
seq_position=8
pitch_keycenter=30

<region>
sample=..\Samples\babyblue\fake_ntp\babyblue_fake_ntp_g1_f_rr1.wav
lokey=29
hikey=29
seq_length=8
pitch_keycenter=31

<region>
sample=..\Samples\babyblue\fake_ntp\babyblue_fake_ntp_g1_f_rr2.wav
lokey=29
hikey=29
seq_length=8
seq_position=2
pitch_keycenter=31

<region>
sample=..\Samples\babyblue\fake_ntp\babyblue_fake_ntp_g1_f_rr3.wav
lokey=29
hikey=29
seq_length=8
seq_position=3
pitch_keycenter=31

<region>
sample=..\Samples\babyblue\fake_ntp\babyblue_fake_ntp_g1_f_rr4.wav
lokey=29
hikey=29
seq_length=8
seq_position=4
pitch_keycenter=31

<region>
sample=..\Samples\babyblue\fake_ntp\babyblue_fake_ntp_g1_f_rr1.wav
lokey=29
hikey=29
seq_length=8
seq_position=5
pitch_keycenter=31

<region>
sample=..\Samples\babyblue\fake_ntp\babyblue_fake_ntp_g1_f_rr2.wav
lokey=29
hikey=29
seq_length=8
seq_position=6
pitch_keycenter=31

<region>
sample=..\Samples\babyblue\fake_ntp\babyblue_fake_ntp_g1_f_rr3.wav
lokey=29
hikey=29
seq_length=8
seq_position=7
pitch_keycenter=31

<region>
sample=..\Samples\babyblue\fake_ntp\babyblue_fake_ntp_g1_f_rr4.wav
lokey=29
hikey=29
seq_length=8
seq_position=8
pitch_keycenter=31

<region>
sample=..\Samples\babyblue\fake_ntp\babyblue_fake_ntp_ab1_f_rr1.wav
lokey=30
hikey=30
seq_length=8
pitch_keycenter=32

<region>
sample=..\Samples\babyblue\fake_ntp\babyblue_fake_ntp_ab1_f_rr2.wav
lokey=30
hikey=30
seq_length=8
seq_position=2
pitch_keycenter=32

<region>
sample=..\Samples\babyblue\fake_ntp\babyblue_fake_ntp_ab1_f_rr3.wav
lokey=30
hikey=30
seq_length=8
seq_position=3
pitch_keycenter=32

<region>
sample=..\Samples\babyblue\fake_ntp\babyblue_fake_ntp_ab1_f_rr4.wav
lokey=30
hikey=30
seq_length=8
seq_position=4
pitch_keycenter=32

<region>
sample=..\Samples\babyblue\fake_ntp\babyblue_fake_ntp_ab1_f_rr1.wav
lokey=30
hikey=30
seq_length=8
seq_position=5
pitch_keycenter=32

<region>
sample=..\Samples\babyblue\fake_ntp\babyblue_fake_ntp_ab1_f_rr2.wav
lokey=30
hikey=30
seq_length=8
seq_position=6
pitch_keycenter=32

<region>
sample=..\Samples\babyblue\fake_ntp\babyblue_fake_ntp_ab1_f_rr3.wav
lokey=30
hikey=30
seq_length=8
seq_position=7
pitch_keycenter=32

<region>
sample=..\Samples\babyblue\fake_ntp\babyblue_fake_ntp_ab1_f_rr4.wav
lokey=30
hikey=30
seq_length=8
seq_position=8
pitch_keycenter=32

<region>
sample=..\Samples\babyblue\fake_ntp\babyblue_fake_ntp_a1_f_rr1.wav
lokey=31
hikey=31
seq_length=8
pitch_keycenter=33

<region>
sample=..\Samples\babyblue\fake_ntp\babyblue_fake_ntp_a1_f_rr2.wav
lokey=31
hikey=31
seq_length=8
seq_position=2
pitch_keycenter=33

<region>
sample=..\Samples\babyblue\fake_ntp\babyblue_fake_ntp_a1_f_rr3.wav
lokey=31
hikey=31
seq_length=8
seq_position=3
pitch_keycenter=33

<region>
sample=..\Samples\babyblue\fake_ntp\babyblue_fake_ntp_a1_f_rr4.wav
lokey=31
hikey=31
seq_length=8
seq_position=4
pitch_keycenter=33

<region>
sample=..\Samples\babyblue\fake_ntp\babyblue_fake_ntp_a1_f_rr1.wav
lokey=31
hikey=31
seq_length=8
seq_position=5
pitch_keycenter=33

<region>
sample=..\Samples\babyblue\fake_ntp\babyblue_fake_ntp_a1_f_rr2.wav
lokey=31
hikey=31
seq_length=8
seq_position=6
pitch_keycenter=33

<region>
sample=..\Samples\babyblue\fake_ntp\babyblue_fake_ntp_a1_f_rr3.wav
lokey=31
hikey=31
seq_length=8
seq_position=7
pitch_keycenter=33

<region>
sample=..\Samples\babyblue\fake_ntp\babyblue_fake_ntp_a1_f_rr4.wav
lokey=31
hikey=31
seq_length=8
seq_position=8
pitch_keycenter=33

<region>
sample=..\Samples\babyblue\fake_ntp\babyblue_fake_ntp_bb1_f_rr1.wav
lokey=32
hikey=32
seq_length=8
pitch_keycenter=34

<region>
sample=..\Samples\babyblue\fake_ntp\babyblue_fake_ntp_bb1_f_rr2.wav
lokey=32
hikey=32
seq_length=8
seq_position=2
pitch_keycenter=34

<region>
sample=..\Samples\babyblue\fake_ntp\babyblue_fake_ntp_bb1_f_rr3.wav
lokey=32
hikey=32
seq_length=8
seq_position=3
pitch_keycenter=34

<region>
sample=..\Samples\babyblue\fake_ntp\babyblue_fake_ntp_bb1_f_rr4.wav
lokey=32
hikey=32
seq_length=8
seq_position=4
pitch_keycenter=34

<region>
sample=..\Samples\babyblue\fake_ntp\babyblue_fake_ntp_bb1_f_rr1.wav
lokey=32
hikey=32
seq_length=8
seq_position=5
pitch_keycenter=34

<region>
sample=..\Samples\babyblue\fake_ntp\babyblue_fake_ntp_bb1_f_rr2.wav
lokey=32
hikey=32
seq_length=8
seq_position=6
pitch_keycenter=34

<region>
sample=..\Samples\babyblue\fake_ntp\babyblue_fake_ntp_bb1_f_rr3.wav
lokey=32
hikey=32
seq_length=8
seq_position=7
pitch_keycenter=34

<region>
sample=..\Samples\babyblue\fake_ntp\babyblue_fake_ntp_bb1_f_rr4.wav
lokey=32
hikey=32
seq_length=8
seq_position=8
pitch_keycenter=34
